<mxfile host="app.diagrams.net" agent="Mozilla/5.0 (Windows NT 10.0; Win64; x64) AppleWebKit/537.36 (KHTML, like Gecko) Chrome/138.0.0.0 Safari/537.36" version="28.0.7">
  <diagram name="ページ1" id="zIxeJKcFp72MeeBreJ-N">
    <mxGraphModel dx="1092" dy="798" grid="1" gridSize="10" guides="1" tooltips="1" connect="1" arrows="1" fold="1" page="1" pageScale="1" pageWidth="827" pageHeight="1169" math="0" shadow="0">
      <root>
        <mxCell id="0" />
        <mxCell id="1" parent="0" />
        <mxCell id="swg0OKwPYbc3tr7jmven-2" value="&lt;font style=&quot;font-size: 24px;&quot;&gt;first&lt;/font&gt;" style="rounded=0;whiteSpace=wrap;html=1;labelBackgroundColor=light-dark(default, #658095);fillColor=#dae8fc;strokeColor=#6c8ebf;" parent="1" vertex="1">
          <mxGeometry x="120" y="200" width="120" height="60" as="geometry" />
        </mxCell>
        <mxCell id="swg0OKwPYbc3tr7jmven-3" value="&lt;font style=&quot;font-size: 24px;&quot;&gt;last&lt;/font&gt;" style="rounded=0;whiteSpace=wrap;html=1;fillColor=#dae8fc;strokeColor=#6c8ebf;" parent="1" vertex="1">
          <mxGeometry x="120" y="260" width="120" height="60" as="geometry" />
        </mxCell>
        <mxCell id="swg0OKwPYbc3tr7jmven-4" value="&lt;font style=&quot;font-size: 24px;&quot;&gt;T型の配列&lt;/font&gt;" style="rounded=1;whiteSpace=wrap;html=1;fillColor=#f8cecc;strokeColor=#b85450;" parent="1" vertex="1">
          <mxGeometry x="320" y="200" width="360" height="60" as="geometry" />
        </mxCell>
        <mxCell id="swg0OKwPYbc3tr7jmven-6" value="" style="endArrow=classic;html=1;rounded=0;entryX=0;entryY=0.5;entryDx=0;entryDy=0;strokeWidth=4;shadow=1;fillColor=#f5f5f5;strokeColor=#666666;" parent="1" source="swg0OKwPYbc3tr7jmven-2" target="swg0OKwPYbc3tr7jmven-4" edge="1">
          <mxGeometry width="50" height="50" relative="1" as="geometry">
            <mxPoint x="390" y="410" as="sourcePoint" />
            <mxPoint x="440" y="360" as="targetPoint" />
          </mxGeometry>
        </mxCell>
        <mxCell id="swg0OKwPYbc3tr7jmven-7" value="" style="curved=1;endArrow=classic;html=1;rounded=0;strokeWidth=4;shadow=1;fillColor=#f5f5f5;strokeColor=#666666;" parent="1" source="swg0OKwPYbc3tr7jmven-3" edge="1">
          <mxGeometry width="50" height="50" relative="1" as="geometry">
            <mxPoint x="300" y="310" as="sourcePoint" />
            <mxPoint x="700" y="250" as="targetPoint" />
            <Array as="points">
              <mxPoint x="600" y="290" />
              <mxPoint x="700" y="290" />
            </Array>
          </mxGeometry>
        </mxCell>
        <mxCell id="7jhP_D0opFtlnRQbrmVD-1" value="&lt;font style=&quot;font-size: 24px;&quot;&gt;first&lt;/font&gt;" style="rounded=0;whiteSpace=wrap;html=1;labelBackgroundColor=light-dark(default, #658095);fillColor=#dae8fc;strokeColor=#6c8ebf;" vertex="1" parent="1">
          <mxGeometry x="800" y="140" width="120" height="60" as="geometry" />
        </mxCell>
        <mxCell id="7jhP_D0opFtlnRQbrmVD-2" value="&lt;font style=&quot;font-size: 24px;&quot;&gt;last&lt;/font&gt;" style="rounded=0;whiteSpace=wrap;html=1;fillColor=#dae8fc;strokeColor=#6c8ebf;" vertex="1" parent="1">
          <mxGeometry x="800" y="200" width="120" height="60" as="geometry" />
        </mxCell>
        <mxCell id="7jhP_D0opFtlnRQbrmVD-5" value="" style="curved=1;endArrow=classic;html=1;rounded=0;exitX=0;exitY=0.5;exitDx=0;exitDy=0;entryX=0.063;entryY=-0.045;entryDx=0;entryDy=0;entryPerimeter=0;strokeWidth=4;shadow=1;strokeColor=light-dark(#666666,#959595);" edge="1" parent="1" source="7jhP_D0opFtlnRQbrmVD-1" target="swg0OKwPYbc3tr7jmven-4">
          <mxGeometry width="50" height="50" relative="1" as="geometry">
            <mxPoint x="390" y="440" as="sourcePoint" />
            <mxPoint x="340" y="170" as="targetPoint" />
            <Array as="points">
              <mxPoint x="400" y="170" />
              <mxPoint x="343" y="170" />
            </Array>
          </mxGeometry>
        </mxCell>
        <mxCell id="7jhP_D0opFtlnRQbrmVD-6" value="" style="endArrow=classic;html=1;rounded=0;strokeWidth=4;strokeColor=light-dark(#666666,#959595);exitX=0;exitY=0.5;exitDx=0;exitDy=0;shadow=1;" edge="1" parent="1" source="7jhP_D0opFtlnRQbrmVD-2">
          <mxGeometry width="50" height="50" relative="1" as="geometry">
            <mxPoint x="390" y="440" as="sourcePoint" />
            <mxPoint x="720" y="230" as="targetPoint" />
          </mxGeometry>
        </mxCell>
        <mxCell id="7jhP_D0opFtlnRQbrmVD-7" value="a" style="text;html=1;align=center;verticalAlign=middle;whiteSpace=wrap;rounded=0;fontSize=24;fontColor=#457BFF;textShadow=1;" vertex="1" parent="1">
          <mxGeometry x="150" y="160" width="60" height="30" as="geometry" />
        </mxCell>
        <mxCell id="7jhP_D0opFtlnRQbrmVD-9" value="&lt;font style=&quot;color: rgb(69, 123, 255);&quot;&gt;b&lt;/font&gt;" style="text;html=1;align=center;verticalAlign=middle;whiteSpace=wrap;rounded=0;fontSize=24;textShadow=1;" vertex="1" parent="1">
          <mxGeometry x="830" y="100" width="60" height="30" as="geometry" />
        </mxCell>
      </root>
    </mxGraphModel>
  </diagram>
</mxfile>
